<svg width="115" height="70" viewBox="0 0 115 70" fill="none" xmlns="http://www.w3.org/2000/svg">
    <g clip-path="url(#clip0_6604_36269)">
        <path d="M110.462 65.0513C101.916 65.0513 95.4864 61.5361 95.4472 58.3868C95.4341 56.9625 94.2319 55.8125 92.8075 55.8125C91.3832 55.8125 90.2202 56.9625 90.194 58.3868C90.1679 60.347 87.6459 62.4639 83.6864 63.7707C84.5881 61.0396 85.0323 58.1908 85.0323 55.1461C85.0323 42.7711 76.9305 32.2648 65.7577 28.619L68.0576 18.5962C72.8665 18.3218 76.7083 14.3362 76.7083 9.44893C76.7083 4.56167 72.5921 0.275513 67.5349 0.275513C62.4778 0.275513 58.3615 4.39179 58.3615 9.44893C58.3615 12.8465 60.2171 15.8128 62.9743 17.394L60.6614 27.4821C59.4984 27.3384 58.3223 27.2338 57.1332 27.2338C41.7396 27.2338 29.2209 39.7525 29.2209 55.1461C29.2209 57.9687 29.6521 60.7651 30.4884 63.4309C27.0517 62.1111 24.9086 60.1902 24.8825 58.3868C24.8563 56.9625 23.6933 55.8125 22.269 55.8125C20.8446 55.8125 19.6816 56.9625 19.6555 58.3868C19.6163 61.5361 13.187 65.0513 4.64085 65.0513C3.20342 65.0513 2.02734 66.2274 2.02734 67.6648C2.02734 69.1022 3.20342 70.2783 4.64085 70.2783C12.3768 70.2783 18.8453 67.9654 22.269 64.3848C25.6927 67.9654 32.1872 70.2783 39.9232 70.2783C47.6592 70.2783 54.1407 67.9654 57.5644 64.3718C60.9881 67.9523 67.4696 70.2783 75.2056 70.2783C82.9415 70.2783 89.4361 67.9523 92.8467 64.3718C96.2574 67.9654 102.752 70.2783 110.488 70.2783C111.925 70.2783 113.101 69.1022 113.101 67.6648C113.101 66.2274 111.925 65.0513 110.488 65.0513H110.462ZM67.5218 5.5156C69.7041 5.5156 71.4682 7.29278 71.4682 9.46199C71.4682 11.6312 69.6911 13.4084 67.5218 13.4084C65.3526 13.4084 63.5755 11.6443 63.5755 9.46199C63.5755 7.27971 65.3396 5.5156 67.5218 5.5156ZM60.1648 58.3999C60.1387 56.9756 58.9626 55.8256 57.5382 55.8256C56.1139 55.8256 54.9378 56.9756 54.9247 58.3999C54.8855 61.5492 48.4563 65.0644 39.9101 65.0644C38.7733 65.0644 37.6756 64.999 36.6302 64.8814C35.1928 61.8628 34.4479 58.5306 34.4479 55.1592C34.4479 42.6535 44.6275 32.4739 57.1332 32.4739C57.9303 32.4739 58.7143 32.5131 59.4984 32.6046L59.2632 33.6108C58.9365 35.0221 59.8251 36.4203 61.2233 36.747C61.4193 36.7993 61.6153 36.8123 61.8113 36.8123C63.0005 36.8123 64.0851 35.9891 64.3595 34.7869L64.5947 33.7676C73.4414 36.8646 79.8184 45.267 79.8184 55.1592C79.8184 58.7005 79.0736 61.9151 77.5708 64.9598C76.7998 65.0252 76.0157 65.0644 75.2056 65.0644C66.6594 65.0644 60.2302 61.5492 60.191 58.3999H60.1648Z" fill="#0047B6"/>
    </g>
    <defs>
        <clipPath id="clip0_6604_36269">
            <rect width="115" height="70" fill="white"/>
        </clipPath>
    </defs>
</svg>
